<svg xmlns="http://www.w3.org/2000/svg" viewBox="0 0 90.63 11.5"><defs><style>.cls-1{fill:#fff;}.cls-2{fill:#e0ab05;}</style></defs><title>Asset 11</title><g id="Layer_2" data-name="Layer 2"><g id="Layer_1-2" data-name="Layer 1"><path class="cls-1" d="M0,11.39V1.57H4.65a3.17,3.17,0,0,1,1.2.23,3.38,3.38,0,0,1,1,.63,3.12,3.12,0,0,1,.66.91,2.58,2.58,0,0,1,.24,1.09,2.37,2.37,0,0,1-.26,1.09,2.54,2.54,0,0,1-.72.85,2.73,2.73,0,0,1,.94.91A2.28,2.28,0,0,1,8,8.53,2.52,2.52,0,0,1,7.8,9.62a2.84,2.84,0,0,1-.66.91,3.38,3.38,0,0,1-1,.63,3.17,3.17,0,0,1-1.2.23ZM4.65,5.58a1.09,1.09,0,0,0,.81-.32,1,1,0,0,0,.33-.78,1.06,1.06,0,0,0-.33-.79,1.13,1.13,0,0,0-.81-.32H1.92V5.58Zm.32,4a1.09,1.09,0,0,0,.81-.32,1,1,0,0,0,.33-.78,1.06,1.06,0,0,0-.33-.79A1.13,1.13,0,0,0,5,7.38h-3V9.59Z"/><path class="cls-1" d="M9.34,1.22A1.28,1.28,0,0,1,9.66.35,1.21,1.21,0,0,1,10.57,0a1.15,1.15,0,0,1,.9.36,1.27,1.27,0,0,1,.32.86,1.28,1.28,0,0,1-.32.87,1.15,1.15,0,0,1-.9.36,1.18,1.18,0,0,1-.91-.36A1.28,1.28,0,0,1,9.34,1.22Zm2.19,10.17H9.61v-8h1.92Z"/><path class="cls-1" d="M17.4,9.67l.41,0,.32-.06v1.8l-.35,0a2.29,2.29,0,0,1-.44,0,4.21,4.21,0,0,1-1.67-.32,3.91,3.91,0,0,1-1.26-.88,3.84,3.84,0,0,1-.8-1.3,4.36,4.36,0,0,1-.28-1.59V1.44h1.92v2.2h2.49v1.8H15.25V7.38A2.53,2.53,0,0,0,15.78,9,2,2,0,0,0,17.4,9.67Z"/><path class="cls-1" d="M20.79,7.38a3.56,3.56,0,0,0,.11.89A1.78,1.78,0,0,0,22,9.46a2.91,2.91,0,0,0,1.1.18,7.26,7.26,0,0,0,1.31-.12,4,4,0,0,0,1.06-.34v2a6,6,0,0,1-1.16.26A9.5,9.5,0,0,1,23,11.5a4.6,4.6,0,0,1-1.76-.32A3.61,3.61,0,0,1,19.14,9a4.51,4.51,0,0,1-.28-1.61,4.49,4.49,0,0,1,.28-1.6,3.73,3.73,0,0,1,.8-1.31,3.63,3.63,0,0,1,1.3-.87A4.6,4.6,0,0,1,23,3.29a9.5,9.5,0,0,1,1.31.09,6,6,0,0,1,1.16.26v2a3.67,3.67,0,0,0-1.06-.34,7.26,7.26,0,0,0-1.31-.12,2.91,2.91,0,0,0-1.1.18,1.8,1.8,0,0,0-.71.47,1.67,1.67,0,0,0-.39.7A3.6,3.6,0,0,0,20.79,7.38Z"/><path class="cls-1" d="M26.45,7.38a4.67,4.67,0,0,1,.27-1.6,3.8,3.8,0,0,1,.81-1.3,3.67,3.67,0,0,1,1.29-.87,4.47,4.47,0,0,1,1.72-.32,4.52,4.52,0,0,1,1.73.32,3.86,3.86,0,0,1,1.29.87,3.78,3.78,0,0,1,.8,1.3,4.67,4.67,0,0,1,.27,1.6A4.58,4.58,0,0,1,34.36,9a3.69,3.69,0,0,1-.8,1.3,4,4,0,0,1-1.29.88,4.52,4.52,0,0,1-1.73.32,4.47,4.47,0,0,1-1.72-.32,3.84,3.84,0,0,1-1.29-.88A3.71,3.71,0,0,1,26.72,9,4.58,4.58,0,0,1,26.45,7.38Zm1.93,0a3.26,3.26,0,0,0,.12.9,2,2,0,0,0,.38.73,1.8,1.8,0,0,0,.68.49,2.94,2.94,0,0,0,2,0A1.77,1.77,0,0,0,32.2,9a1.91,1.91,0,0,0,.39-.73,3.44,3.44,0,0,0,0-1.8,1.91,1.91,0,0,0-.39-.73,1.77,1.77,0,0,0-.67-.49,2.79,2.79,0,0,0-2,0,1.8,1.8,0,0,0-.68.49,2,2,0,0,0-.38.73A3.26,3.26,0,0,0,28.38,7.38Z"/><path class="cls-1" d="M35.63,7.36a4.64,4.64,0,0,1,.27-1.58,3.78,3.78,0,0,1,.8-1.3A3.71,3.71,0,0,1,38,3.61a4.59,4.59,0,0,1,1.75-.32,4.33,4.33,0,0,1,1.65.29,3.48,3.48,0,0,1,1.26.82,3.7,3.7,0,0,1,.82,1.29,5,5,0,0,1,.33,1.69c0,.2,0,.45,0,.74s0,.62,0,1a7.88,7.88,0,0,0,.18,1.12,5.67,5.67,0,0,0,.4,1.18H42.52a6,6,0,0,1-.4-1.24,3.08,3.08,0,0,1-1.06,1,3.19,3.19,0,0,1-1.54.35A3.9,3.9,0,0,1,38,11.15a3.78,3.78,0,0,1-1.23-.88,4,4,0,0,1-.8-1.3A4.23,4.23,0,0,1,35.63,7.36Zm4.12-2.28a2.53,2.53,0,0,0-1,.18,1.73,1.73,0,0,0-.68.49,1.91,1.91,0,0,0-.39.73,3.43,3.43,0,0,0,0,1.8,1.91,1.91,0,0,0,.39.73,1.73,1.73,0,0,0,.68.49,2.73,2.73,0,0,0,1,.17,2.14,2.14,0,0,0,1.56-.55,2.34,2.34,0,0,0,.57-1.74,2.8,2.8,0,0,0-.54-1.68A1.92,1.92,0,0,0,39.75,5.08Z"/><path class="cls-1" d="M47.19,7.38a3.56,3.56,0,0,0,.11.89,1.83,1.83,0,0,0,.39.71,1.72,1.72,0,0,0,.71.48,2.94,2.94,0,0,0,1.1.18,7.17,7.17,0,0,0,1.31-.12,4.09,4.09,0,0,0,1.07-.34v2a6.13,6.13,0,0,1-1.17.26,9.47,9.47,0,0,1-1.3.09,4.62,4.62,0,0,1-1.77-.32,3.86,3.86,0,0,1-1.3-.87A3.73,3.73,0,0,1,45.54,9a4.91,4.91,0,0,1,0-3.21,3.61,3.61,0,0,1,2.1-2.18,4.62,4.62,0,0,1,1.77-.32,9.47,9.47,0,0,1,1.3.09,6.13,6.13,0,0,1,1.17.26v2a3.74,3.74,0,0,0-1.07-.34,7.17,7.17,0,0,0-1.31-.12,2.94,2.94,0,0,0-1.1.18A1.75,1.75,0,0,0,47.3,6.5,3.6,3.6,0,0,0,47.19,7.38Z"/><path class="cls-1" d="M55.42,4.28a2.92,2.92,0,0,1,1-.73,3.22,3.22,0,0,1,1.33-.26,3.49,3.49,0,0,1,1.49.32,3.4,3.4,0,0,1,1.15.87,4,4,0,0,1,.74,1.3,4.92,4.92,0,0,1,.26,1.6v4H59.43v-4A2.79,2.79,0,0,0,59,5.72a1.69,1.69,0,0,0-1.47-.64A1.9,1.9,0,0,0,56,5.69a2.49,2.49,0,0,0-.56,1.59v4.11H53.5V.16h1.92Z"/><path class="cls-2" d="M63.31,10.25a1.24,1.24,0,0,1,.33-.87,1.29,1.29,0,0,1,1.81,0,1.33,1.33,0,0,1,0,1.73,1.16,1.16,0,0,1-.9.36,1.2,1.2,0,0,1-.91-.35A1.24,1.24,0,0,1,63.31,10.25Z"/><path class="cls-2" d="M71.78,5.08a1.77,1.77,0,0,0-1.51.65,2.59,2.59,0,0,0-.49,1.65v4H67.85v-4a4.67,4.67,0,0,1,.27-1.6,3.71,3.71,0,0,1,.77-1.3,3.52,3.52,0,0,1,1.23-.87,4.47,4.47,0,0,1,3.32,0,3.56,3.56,0,0,1,1.24.87,4,4,0,0,1,.77,1.3,4.92,4.92,0,0,1,.26,1.6v4H73.79v-4a2.65,2.65,0,0,0-.49-1.65A1.79,1.79,0,0,0,71.78,5.08Z"/><path class="cls-2" d="M81.13,8.58A5.15,5.15,0,0,1,79,8.1a1.83,1.83,0,0,0,.7,1.11,2.9,2.9,0,0,0,1.74.41c.17,0,.37,0,.59,0l.69-.06.68-.08A4.17,4.17,0,0,0,84,9.32v1.81c-.19.06-.4.1-.63.15l-.7.11-.68.07c-.22,0-.42,0-.62,0a5,5,0,0,1-1.88-.32,3.75,3.75,0,0,1-1.35-.87,3.42,3.42,0,0,1-.8-1.3A4.6,4.6,0,0,1,77,7.41a4.47,4.47,0,0,1,.28-1.61,3.8,3.8,0,0,1,.79-1.31,3.75,3.75,0,0,1,1.28-.88,4.54,4.54,0,0,1,1.74-.32,4.58,4.58,0,0,1,1.37.19A3.33,3.33,0,0,1,83.58,4a2.44,2.44,0,0,1,.71.83,2.38,2.38,0,0,1,.24,1.08A2.44,2.44,0,0,1,84.29,7a2.53,2.53,0,0,1-.7.83,3.42,3.42,0,0,1-1.08.54A4.56,4.56,0,0,1,81.13,8.58Zm0-1.86a2.38,2.38,0,0,0,1.06-.2.62.62,0,0,0,.38-.58.63.63,0,0,0-.37-.59,2.22,2.22,0,0,0-1-.2,2.37,2.37,0,0,0-1.34.33,1.83,1.83,0,0,0-.71.87,4.27,4.27,0,0,0,1,.27A5.28,5.28,0,0,0,81.15,6.72Z"/><path class="cls-2" d="M89.91,9.67l.4,0,.32-.06v1.8l-.34,0a2.41,2.41,0,0,1-.45,0,4.16,4.16,0,0,1-1.66-.32,3.71,3.71,0,0,1-1.26-.88A3.86,3.86,0,0,1,86.11,9a4.58,4.58,0,0,1-.28-1.59V1.44h1.93v2.2h2.49v1.8H87.76V7.38A2.53,2.53,0,0,0,88.28,9,2,2,0,0,0,89.91,9.67Z"/></g></g></svg>